<svg xmlns="http://www.w3.org/2000/svg" width="499.927" height="252.861" viewBox="0 0 499.927 252.861"><defs><style>.a{fill:#ffc100;}.b{opacity:0.4;}.c{fill:#b78876;}.d{fill:#aa6550;}.e{fill:#263238;}.f{fill:#455a64;}.g{fill:#fafafa;}.h{opacity:0.2;}.i{fill:#ffbe9d;}.j{fill:#eb996e;}.k{fill:#f5f5f5;}.l{fill:#e0e0e0;}</style></defs><g transform="translate(247.594 47.731)"><rect class="a" width="200.813" height="174.94" rx="28.132" transform="translate(21.497 30.189)"/><g class="b" transform="translate(21.497 30.189)"><rect width="200.813" height="174.94" rx="28.132"/></g><path class="a" d="M479.3,200.879h30.078l-30.755,30.763Z" transform="translate(-257.049 -109.706)"/><g class="b" transform="translate(221.578 91.173)"><path d="M479.3,200.879h30.078l-30.755,30.763Z" transform="translate(-478.626 -200.879)"/></g><path class="c" d="M293.518,220.667l-12.606-14.334c-3.408-3.408-4.579-5.049-3.894-5.646.908-.8.518-.534,7.6,4.778,0,0-10.034-7.669-6.554-7.717.613,0,2.317.987,4.141,2.182-2.485-2.11-3.185-3.536-2.7-4.213.8-1.179,6.944,3.082,9.771,5.128-2.309-1.72-6.713-5.057-7.486-6.108-1.067-1.433,1.091-1.314,2.843-.717,1.967.669,12.837,6.219,16.054,7.653a2.078,2.078,0,0,0,2.994-1.011c1.187-4.985,4.778-8.226,6.148-8.648s2.429,1.33,1.449,2.6a19,19,0,0,0-2.118,4.762,12.319,12.319,0,0,0-.645,4.085c0,1.593.112,2.97.215,4.125L320.251,223.4l-19.271,11.149Z" transform="translate(-276.83 -110.581)"/><path class="d" d="M288.772,206.961c-.127.175-2.389-1.362-5-3.44s-4.651-3.91-4.5-4.077,2.389,1.378,5,3.44S288.883,206.778,288.772,206.961Z" transform="translate(-276.592 -109.848)"/><path class="d" d="M291.09,204.658c-.127.183-2.6-1.33-5.535-3.369s-5.208-3.846-5.081-4.022,2.6,1.322,5.535,3.361S291.218,204.475,291.09,204.658Z" transform="translate(-276.473 -110.061)"/><path class="d" d="M292.672,202.175c-.127.183-2.5-1.2-5.3-3.1s-4.961-3.576-4.842-3.767,2.493,1.2,5.3,3.1S292.792,201.992,292.672,202.175Z" transform="translate(-276.271 -110.253)"/><path class="c" d="M308.313,208.146l45.933,58.244-10.52,24.487s-12.6-2.787-16.421-8.091-35.278-63.707-35.278-63.707Z" transform="translate(-275.34 -108.993)"/><path class="e" d="M413.981,133.939c3.3,2.867,3.3,7.916,2.915,12.272s-.677,9.317,2.341,12.487c2.493,2.612,7.008,3.751,7.581,7.31a4.1,4.1,0,0,1-6.777,3.719c.971,2.811.3,6.323-2.134,8.027s-6.522.653-7.279-2.222a3.607,3.607,0,1,1-7.079,1.29" transform="translate(-264.408 -116.268)"/><path class="e" d="M371.184,164.174a4.357,4.357,0,0,1-8.043-3.353c.757-1.656,2.548-2.851,2.724-4.667.207-2.19-2.031-3.759-3.982-4.714s-4.308-2.2-4.523-4.4,1.688-3.767,3.273-5.184,3.185-3.615,2.174-5.5c-.5-.972-1.545-1.521-2.222-2.389-1.489-1.9-.709-4.913,1.195-6.371a8.857,8.857,0,0,1,6.9-1.266,62.738,62.738,0,0,1,6.912,2.1,28.835,28.835,0,0,0,22.966-3.01" transform="translate(-268.938 -117.102)"/><path class="c" d="M384.654,215.725a15.991,15.991,0,0,0,18.786-12.264l11.3-51.81a22.99,22.99,0,0,0-17.734-27.792l-1.179-.175A23.142,23.142,0,0,0,369.906,141.4c-2.516,10.934-5.152,23.046-5.949,28.995-1.648,12.319,10.352,16.03,10.352,16.03l-2.158,10.352A15.991,15.991,0,0,0,384.638,215.7Z" transform="translate(-268.305 -117.297)"/><path class="e" d="M371.379,147.346a1.784,1.784,0,0,0,1.433,2.023,1.7,1.7,0,0,0,2.039-1.314,1.768,1.768,0,0,0-1.425-2.023,1.7,1.7,0,0,0-2.047,1.314Z" transform="translate(-267.564 -115.086)"/><path class="e" d="M370.965,145.754c.183.263,1.656-.534,3.552-.247s3.13,1.425,3.368,1.226c.119-.088-.048-.534-.581-1.059a4.874,4.874,0,0,0-2.66-1.266,4.69,4.69,0,0,0-2.867.478C371.132,145.253,370.877,145.635,370.965,145.754Z" transform="translate(-267.604 -115.247)"/><path class="e" d="M388.2,150.1a1.776,1.776,0,0,0,1.433,2.023,1.7,1.7,0,0,0,2.039-1.322,1.768,1.768,0,0,0-1.433-2.015A1.688,1.688,0,0,0,388.2,150.1Z" transform="translate(-265.915 -114.816)"/><path class="e" d="M387.834,148.554c.183.255,1.656-.534,3.544-.247s3.138,1.425,3.376,1.226c.112-.088-.048-.534-.589-1.059a4.874,4.874,0,0,0-2.66-1.266,4.691,4.691,0,0,0-2.867.478C388.026,148.028,387.739,148.434,387.834,148.554Z" transform="translate(-265.95 -114.972)"/><path class="e" d="M380.129,161.674a12.692,12.692,0,0,0-2.986-1c-.478-.119-.916-.287-.948-.629a2.5,2.5,0,0,1,.526-1.378q.948-1.648,1.967-3.464c2.747-4.945,4.778-9.03,4.611-9.142s-2.588,3.806-5.335,8.76l-1.911,3.488a2.867,2.867,0,0,0-.526,1.863,1.226,1.226,0,0,0,.693.8,3.391,3.391,0,0,0,.8.231A12.694,12.694,0,0,0,380.129,161.674Z" transform="translate(-267.156 -115.08)"/><path class="e" d="M388.37,141.7c.111.542,2.039.573,4.213,1.163s3.878,1.457,4.245,1.043c.159-.2-.08-.733-.725-1.33a7.581,7.581,0,0,0-6.442-1.68C388.768,141.107,388.33,141.489,388.37,141.7Z" transform="translate(-265.896 -115.6)"/><path class="e" d="M372.33,140.878c.271.478,1.593.223,3.185.43s2.851.717,3.185.311c.167-.2,0-.661-.494-1.155a4.675,4.675,0,0,0-5.176-.589C372.457,140.233,372.21,140.647,372.33,140.878Z" transform="translate(-267.471 -115.737)"/><path class="e" d="M399.836,135.629l.056.064a9.763,9.763,0,0,1,2.676,6.785v.247c0,3.584-.645,7.167-.637,10.711s.693,7.318,2.931,10.106c.916,1.155,2.7,2.11,3.743,1.075a3.026,3.026,0,0,0,.677-1.545c1.9-8.37,5.3-15.537,6.586-24.392a7.541,7.541,0,0,0-2.206-6.53c-1.656-1.593-3.719-3.313-5.925-2.636s-5.431,4.141-7.271,5.574" transform="translate(-264.772 -116.716)"/><path class="c" d="M405.874,153.652c.223-.064,8.816-1.266,7.31,7.1s-9.556,5.136-9.556,4.89S405.874,153.652,405.874,153.652Z" transform="translate(-264.4 -114.345)"/><path class="d" d="M406.473,162.667a2.618,2.618,0,0,0,.35.279,1.489,1.489,0,0,0,1.091.223c.94-.167,1.935-1.433,2.246-2.939a4.908,4.908,0,0,0,0-2.158,1.72,1.72,0,0,0-.9-1.314.749.749,0,0,0-.932.247c-.151.207-.127.39-.175.39s-.151-.167,0-.5a.924.924,0,0,1,.422-.462,1.123,1.123,0,0,1,.844-.072,2.094,2.094,0,0,1,1.29,1.593,5.025,5.025,0,0,1,.088,2.389c-.358,1.68-1.505,3.1-2.771,3.233a1.593,1.593,0,0,1-1.3-.462C406.449,162.867,406.441,162.675,406.473,162.667Z" transform="translate(-264.123 -114.075)"/><path class="e" d="M411.493,131.955c2.564-3.066-2.389-8.72-6.371-10.639s-9.715-.693-14.047.072c-2.731.486-5.5,1.314-8.226.8a18.538,18.538,0,0,1-5.128-2.142,13.88,13.88,0,0,0-5.208-1.824,5.128,5.128,0,0,0-4.834,2.158c-.948,1.593-.287,4.085,1.5,4.6a4.173,4.173,0,1,0-2.222,7.486c-1.059-1.083-3.114.151-3.185,1.664s1.123,2.8,2.389,3.6c3.273,2.055,7.43,2.158,11.236,1.473s7.454-2.1,11.244-2.883,10.153-2.262,13.578-.454c2.516,1.322,3.9,4.778,5.5,4.308a5.2,5.2,0,0,0,3.185-3.392,15.13,15.13,0,0,0,.534-4.778" transform="translate(-268.434 -117.812)"/><path class="f" d="M423.437,169.343a1.29,1.29,0,0,0,.438-.191,2.493,2.493,0,0,0,.908-1.035,3.655,3.655,0,0,0,.271-2.166,4.348,4.348,0,0,0-1.5-2.453,10.909,10.909,0,0,0-3.018-1.76,19.6,19.6,0,0,1-3.528-1.7,7.04,7.04,0,0,1-2.556-3.321,11.641,11.641,0,0,1-.741-4.523c.08-3.185.964-6.172,1.179-8.983s-.143-5.447-1.338-7.271a6.745,6.745,0,0,0-3.982-2.986,4.652,4.652,0,0,0-1.362-.135,1.76,1.76,0,0,0-.47.072,6.945,6.945,0,0,1,1.792.223,6.721,6.721,0,0,1,3.759,2.986,11.457,11.457,0,0,1,1.21,7.079c-.279,2.747-1.131,5.734-1.226,9.007a11.945,11.945,0,0,0,.8,4.682,7.421,7.421,0,0,0,2.731,3.5,20.106,20.106,0,0,0,3.608,1.7,10.909,10.909,0,0,1,2.954,1.656A4.181,4.181,0,0,1,424.83,166a3.456,3.456,0,0,1-.191,2.047,2.739,2.739,0,0,1-1.2,1.3Z" transform="translate(-263.997 -116.378)"/><path class="f" d="M368.979,124.246a1.443,1.443,0,0,0-.366-.2,3.09,3.09,0,0,0-.462-.183,3.981,3.981,0,0,0-.677-.167,5.041,5.041,0,0,0-4.221,1.29h0a6.753,6.753,0,0,0-1.5,4.985,8.3,8.3,0,0,0,3.074,5.678,12.845,12.845,0,0,0,6.96,2.8,28.382,28.382,0,0,0,8.266-.5,37.364,37.364,0,0,0,12.184-4.714,37.09,37.09,0,0,1,5.033-2.6,13.378,13.378,0,0,1,4.778-.98,14.263,14.263,0,0,1,6.864,1.593,23.88,23.88,0,0,1,2.222,1.41A9.762,9.762,0,0,0,409,131.054a14.047,14.047,0,0,0-6.952-1.776,13.713,13.713,0,0,0-4.905.948,37.56,37.56,0,0,0-5.089,2.6,37.6,37.6,0,0,1-12.073,4.627,28.2,28.2,0,0,1-8.147.518,12.542,12.542,0,0,1-6.761-2.676,8,8,0,0,1-2.994-5.423,6.482,6.482,0,0,1,1.37-4.778h0a4.945,4.945,0,0,1,4.029-1.33,8.608,8.608,0,0,1,1.505.478Z" transform="translate(-268.509 -117.278)"/><path class="f" d="M372.574,117.845a4.778,4.778,0,0,0,.295,1.879,7.9,7.9,0,0,0,3.3,3.982,9.882,9.882,0,0,0,3.337,1.386,14.159,14.159,0,0,0,4.141.215c2.922-.215,5.98-1.218,9.19-2.047s6.419-1.266,9.19-.526a11.945,11.945,0,0,1,6.243,4.053,12.415,12.415,0,0,1,2.389,4.491c.319,1.171.358,1.855.414,1.848a3.786,3.786,0,0,0,0-.494,9.9,9.9,0,0,0-.231-1.394,12.008,12.008,0,0,0-2.317-4.643,12.176,12.176,0,0,0-6.371-4.244c-2.867-.8-6.164-.342-9.389.494s-6.259,1.84-9.118,2.07a14.031,14.031,0,0,1-4.037-.167,9.915,9.915,0,0,1-3.249-1.29,7.963,7.963,0,0,1-3.3-3.775,11.337,11.337,0,0,1-.486-1.84Z" transform="translate(-267.445 -117.845)"/><path class="d" d="M376.3,166.079a9.06,9.06,0,0,0,.645,2.389,2.923,2.923,0,0,0,1.792,1.593,2.612,2.612,0,0,0,2.389-.725,4.228,4.228,0,0,0,1.123-2.341c.127-.8,0-1.792-.8-2.047a2.038,2.038,0,0,0-.979,0l-4.412.8" transform="translate(-267.103 -113.234)"/><path class="e" d="M377.131,169.443a6.212,6.212,0,0,0,2.2.414,3.121,3.121,0,0,0,2.055-.94,3.312,3.312,0,0,0,.884-2.572,2.9,2.9,0,0,0-.159-.7c-.1-.215-.072-.2-.255-.223a2.778,2.778,0,0,0-.709.04l-.741.056c-.956.072-1.816.127-2.54.167a7.581,7.581,0,0,1-2.389-.048,8.1,8.1,0,0,1,2.317-.478c.717-.1,1.593-.207,2.524-.319l.733-.08a7.156,7.156,0,0,1,.8-.072,1,1,0,0,1,.581.207,1.162,1.162,0,0,1,.327.486,3.451,3.451,0,0,1,.207.892,3.91,3.91,0,0,1-1.139,3.13,3.56,3.56,0,0,1-2.524.979,3.3,3.3,0,0,1-1.736-.486C377.29,169.674,377.107,169.475,377.131,169.443Z" transform="translate(-267.16 -113.253)"/><path class="d" d="M373.458,180.8s8.027,3.042,15.839.8c0,0-5.893,4.945-16.643,3.05Z" transform="translate(-267.437 -111.674)"/><path class="g" d="M387.451,285.708a9.239,9.239,0,0,1-1.1-.844c-.342-.279-.8-.621-1.282-.987s-1.075-.8-1.752-1.234-1.378-.916-2.2-1.37-1.688-.932-2.62-1.41a40.869,40.869,0,0,0-13-3.886c-1.043-.112-2.031-.239-2.962-.263s-1.8-.064-2.588-.056-1.513.048-2.142.072-1.171.072-1.593.119a8.391,8.391,0,0,1-1.378.1,10.477,10.477,0,0,1,1.362-.255,15.929,15.929,0,0,1,1.593-.191c.629-.048,1.346-.135,2.15-.135s1.672-.048,2.612,0,1.943.127,2.994.223a43.56,43.56,0,0,1,6.737,1.386,42.2,42.2,0,0,1,6.371,2.54c.932.494,1.832.948,2.62,1.457s1.537.964,2.19,1.425,1.226.908,1.728,1.29.916.749,1.242,1.051A8.394,8.394,0,0,1,387.451,285.708Z" transform="translate(-269.183 -102.406)"/><path class="a" d="M346.56,252.031l6.53-28.294c2.5-10.639,5.463-20.864,10.44-22.075v3.289L361.4,285.787s-13.307,15.13-30.261,6.737c-5.3-2.636-14.979-21.151-14.979-21.151s-22.513-40.167-21.573-41.991,14.692-19.55,16.094-20.434Z" transform="translate(-275.093 -109.629)"/><path class="a" d="M407.869,194.52c12.98,2.485,27.593,10.058,34.322,29.465,2.453,7.087,20.323,59.335,20.323,59.335l-30.476-.637-4.921-10.759,2.389,17.48,2.063,24.925-76.958,1.3.542-37.555.741-74.7s.86-1.131,14.135-8.449C378.261,190.379,407.869,194.52,407.869,194.52Z" transform="translate(-269.206 -110.498)"/><g class="h" transform="translate(146.308 133.984)"><path d="M410.108,239.868c1.266,15.768,2.716,20.641,3.982,36.409a14,14,0,0,0,.8,4.38,4.778,4.778,0,0,0,3.185,2.907c2.246.454,5.16,2.078,5.789-.12l-2.126-15.186a29.951,29.951,0,0,0-2.1-6.411c-4.722-10.488-6.466-11.1-9.556-21.979" transform="translate(-410.076 -239.868)"/></g><path class="a" d="M368.643,203.787l.255-1.64,2.461-15.736a1.832,1.832,0,0,1,1.959-1.545l30.3,2.532a3.48,3.48,0,0,1,3.185,3.727l-.677,9.142-9.461,12.343-13.625,2.126" transform="translate(-267.83 -111.276)"/><path class="e" d="M354.8,229.04c.119,0,.207,12.327.207,27.529s-.088,27.529-.207,27.529-.207-12.327-.207-27.529S354.69,229.04,354.8,229.04Z" transform="translate(-269.207 -106.945)"/><path class="e" d="M427.847,283.521s0-.056-.1-.175a3.2,3.2,0,0,1-.255-.542l-.924-2.094-3.321-7.732-10.822-25.57c-2.1-5-4.1-9.763-5.917-14.1a26.564,26.564,0,0,1-1.959-6.371,35.138,35.138,0,0,1-.526-5.813,23.445,23.445,0,0,1,1.21-8.322l.247-.661.279-.557a4.887,4.887,0,0,1,.478-.844l.334-.494a1.4,1.4,0,0,1,.127-.159,16.363,16.363,0,0,0-1.314,2.771,24.081,24.081,0,0,0-1.067,8.266,30.388,30.388,0,0,0,2.54,12.065l5.949,14.087,10.711,25.618,3.185,7.78.852,2.126.215.557A.969.969,0,0,1,427.847,283.521Z" transform="translate(-264.363 -108.804)"/><path class="g" d="M417.824,196.9a9.975,9.975,0,0,1-.884.8,13.688,13.688,0,0,1-2.907,1.7,21.819,21.819,0,0,1-5.112,1.433,63.4,63.4,0,0,1-7.008.693c-2.612.111-5.463.064-8.521.119a39.435,39.435,0,0,0-9.636,1.179,17.759,17.759,0,0,0-9.062,5.343,12.51,12.51,0,0,0-2.516,4.969,10.638,10.638,0,0,0,.1,5.694,9.039,9.039,0,0,0,1.33,2.548,6.714,6.714,0,0,0,2.15,1.816,4.682,4.682,0,0,0,2.66.557,3.639,3.639,0,0,0,2.341-1.195,6.371,6.371,0,0,0,1.179-5.041,8.273,8.273,0,0,0-.8-2.485,12.141,12.141,0,0,0-1.409-2.142,15,15,0,0,0-8.17-4.834,17.353,17.353,0,0,0-8.354.1,22.9,22.9,0,0,0-6.371,2.731,30.458,30.458,0,0,0-4.237,3.185c-1.091.956-1.863,1.784-2.389,2.325l-.589.637a1.469,1.469,0,0,1-.215.207,25.94,25.94,0,0,1,3.106-3.289,28.665,28.665,0,0,1,4.221-3.233,22.863,22.863,0,0,1,6.45-2.819,17.52,17.52,0,0,1,8.5-.143,15.3,15.3,0,0,1,8.385,4.929,12.487,12.487,0,0,1,1.449,2.15,8.618,8.618,0,0,1,.8,2.6,8.362,8.362,0,0,1-.048,2.779,5.519,5.519,0,0,1-1.219,2.588,4.038,4.038,0,0,1-2.6,1.33,5.041,5.041,0,0,1-2.9-.6,7.167,7.167,0,0,1-2.285-1.927,9.438,9.438,0,0,1-1.4-2.676,10.989,10.989,0,0,1-.1-5.917,12.741,12.741,0,0,1,2.6-5.136,18.22,18.22,0,0,1,9.269-5.455,39.583,39.583,0,0,1,9.739-1.131c3.066-.048,5.917,0,8.513-.072a63.791,63.791,0,0,0,6.984-.629,22.582,22.582,0,0,0,5.1-1.354,14.549,14.549,0,0,0,2.914-1.593c.319-.215.534-.414.693-.526A1.658,1.658,0,0,1,417.824,196.9Z" transform="translate(-269.716 -110.096)"/><path class="g" d="M438.531,227.239a1.539,1.539,0,0,1-.342.056c-.223,0-.549.056-.979.072a31.538,31.538,0,0,1-3.607-.088c-1.521-.111-3.321-.342-5.312-.621s-4.173-.573-6.482-.693a24.991,24.991,0,0,0-6.442.486,16.245,16.245,0,0,0-4.921,1.871,14.166,14.166,0,0,0-3.631,3.185,1.131,1.131,0,0,1,.175-.295,5.74,5.74,0,0,1,.573-.8,10.975,10.975,0,0,1,2.731-2.389,16.006,16.006,0,0,1,4.985-1.991,24.44,24.44,0,0,1,6.554-.526c2.333.119,4.523.438,6.514.733s3.775.557,5.28.7,2.739.207,3.584.215a10.762,10.762,0,0,1,1.322.08Z" transform="translate(-264.088 -107.295)"/><path class="g" d="M424.48,261.567a16.046,16.046,0,0,0-4.571-.39,24.8,24.8,0,0,0-5.312.948c-2.031.549-4.3,1.354-6.849,2.142a28.19,28.19,0,0,1-8.585,1.489,24.592,24.592,0,0,1-9.779-2.031,24.328,24.328,0,0,1-8.919-6.482,18.548,18.548,0,0,1-3.185-4.953,11.324,11.324,0,0,1-.916-5.98,8.7,8.7,0,0,1,2.827-5.328,6.2,6.2,0,0,1,2.684-1.37,6.283,6.283,0,0,1,5.519,1.489,4.778,4.778,0,0,1,1.433,2.477,4.833,4.833,0,0,1-.215,2.8,6.721,6.721,0,0,1-1.489,2.285,11.872,11.872,0,0,1-4.372,2.779,13.346,13.346,0,0,1-2.389.661c-.4.072-.8.159-1.187.215l-1.187.143a25.859,25.859,0,0,1-8.688-.613,27.075,27.075,0,0,1-6.713-2.58,24.78,24.78,0,0,1-4.467-3.09l-.8-.693-.653-.661a11.056,11.056,0,0,1-.987-1.067l-.573-.685a1.654,1.654,0,0,1-.175-.239,1.967,1.967,0,0,1,.215.215l.6.653a11.862,11.862,0,0,0,1.011,1.035l.661.645.8.677a25.147,25.147,0,0,0,4.467,3,27.075,27.075,0,0,0,6.665,2.5,25.587,25.587,0,0,0,8.592.557l1.163-.143c.39-.064.8-.151,1.179-.223a12.889,12.889,0,0,0,2.333-.653,11.555,11.555,0,0,0,4.229-2.7,6.371,6.371,0,0,0,1.4-2.158,4.563,4.563,0,0,0,.2-2.572,4.985,4.985,0,0,0-3.719-3.568,5.574,5.574,0,0,0-5.264,1.2,8.226,8.226,0,0,0-2.684,5.073,11.045,11.045,0,0,0,.876,5.758,18.49,18.49,0,0,0,3.09,4.85,24,24,0,0,0,8.76,6.371,24.423,24.423,0,0,0,9.628,2.039,28,28,0,0,0,8.5-1.433c2.54-.8,4.778-1.545,6.872-2.078a24.622,24.622,0,0,1,5.359-.884,15.874,15.874,0,0,1,1.983,0c.565.088,1.051.127,1.433.215l.868.215a1.287,1.287,0,0,1,.327.143Z" transform="translate(-269.174 -105.922)"/><path class="g" d="M355.609,252.849c-.072,0-.438-.8-1.21-2.134a20.784,20.784,0,0,0-8.5-7.924c-1.354-.685-2.246-.987-2.222-1.059a2.389,2.389,0,0,1,.653.151,12.975,12.975,0,0,1,1.7.637A18.612,18.612,0,0,1,351,245.841a18.316,18.316,0,0,1,3.655,4.73,13.878,13.878,0,0,1,.8,1.64,2.474,2.474,0,0,1,.159.637Z" transform="translate(-270.277 -105.701)"/><path class="g" d="M326.983,287.417a1.135,1.135,0,0,1-.127-.2c-.072-.135-.191-.35-.327-.6-.287-.526-.7-1.314-1.21-2.333a54.585,54.585,0,0,1-3.647-8.975,29,29,0,0,1-1.139-6.6,20.59,20.59,0,0,1,.151-3.743,22.338,22.338,0,0,1,.94-3.862,16.834,16.834,0,0,1,4.674-7.071,11.443,11.443,0,0,1,8.5-2.986,6.307,6.307,0,0,1,4.189,2.039,5.145,5.145,0,0,1,1.187,4.356,3.87,3.87,0,0,1-1.131,1.967,4.611,4.611,0,0,1-1.943,1.059,5.734,5.734,0,0,1-4.165-.5,9.508,9.508,0,0,1-3.034-2.588,13.952,13.952,0,0,1-1.919-3.241,14.334,14.334,0,0,1-1.043-6.594,13.539,13.539,0,0,1,1.593-5.3,13.824,13.824,0,0,1,2.5-3.345,13,13,0,0,1,2.047-1.664c.247-.167.454-.271.589-.35l.207-.1s-.255.183-.749.526a14.483,14.483,0,0,0-1.983,1.7,14.166,14.166,0,0,0-2.389,3.337,13.378,13.378,0,0,0-1.489,5.208,13.984,13.984,0,0,0,1.083,6.45,13.761,13.761,0,0,0,1.879,3.146,9.214,9.214,0,0,0,2.93,2.477,5.336,5.336,0,0,0,3.886.462,3.743,3.743,0,0,0,2.779-2.739,4.778,4.778,0,0,0-1.1-3.982,5.893,5.893,0,0,0-3.918-1.9,11.045,11.045,0,0,0-8.186,2.875,16.588,16.588,0,0,0-4.579,6.9,21.551,21.551,0,0,0-.948,3.783,20.631,20.631,0,0,0-.167,3.679,29.184,29.184,0,0,0,1.083,6.538,58.214,58.214,0,0,0,3.5,8.983l1.139,2.389c.119.255.215.462.295.621S326.983,287.417,326.983,287.417Z" transform="translate(-272.549 -106.186)"/><path class="g" d="M318.988,218.872a1.9,1.9,0,0,1,.072.327,9.7,9.7,0,0,1,.119.972,20.354,20.354,0,0,1,0,3.576A22.727,22.727,0,0,1,306.342,242.4a20.472,20.472,0,0,1-3.337,1.282c-.4.127-.725.183-.94.239s-.334.064-.334.048a10.2,10.2,0,0,1,1.226-.438,25.129,25.129,0,0,0,3.257-1.394,23.309,23.309,0,0,0,12.678-18.427,25.93,25.93,0,0,0,.135-3.536,10.107,10.107,0,0,1-.04-1.306Z" transform="translate(-274.389 -107.942)"/><path class="g" d="M443.927,250.319a11.642,11.642,0,0,0-3.074,2.8c-.8,1.027-1.593,2.389-2.493,3.822a29.468,29.468,0,0,1-3.4,4.5,28.671,28.671,0,0,1-8.163,6.14,23.928,23.928,0,0,1-2.851,1.218,6.238,6.238,0,0,1-1.1.319,6.1,6.1,0,0,1,1.035-.47c.669-.295,1.64-.709,2.779-1.33a30.658,30.658,0,0,0,7.963-6.156,30.264,30.264,0,0,0,3.384-4.42,41.57,41.57,0,0,1,2.588-3.806,10.058,10.058,0,0,1,2.285-2.11,4.971,4.971,0,0,1,.741-.406C443.831,250.343,443.927,250.3,443.927,250.319Z" transform="translate(-262.516 -104.86)"/><path class="e" d="M406.061,195.351a1.266,1.266,0,0,1-.366.1l-1.059.191c-.924.151-2.262.35-3.91.573-3.313.446-7.9.972-12.988,1.346a64.562,64.562,0,0,1-7.167.255,20.323,20.323,0,0,1-5.805-1,12.893,12.893,0,0,1-3.544-1.792,8.726,8.726,0,0,1-.844-.677c-.175-.175-.263-.263-.255-.279s.414.319,1.187.8a14.216,14.216,0,0,0,3.544,1.64,20.633,20.633,0,0,0,5.734.892,70.885,70.885,0,0,0,7.167-.287c5.073-.374,9.66-.844,12.972-1.218l3.926-.446a10.078,10.078,0,0,1,1.409-.1Z" transform="translate(-267.685 -110.373)"/><path class="c" d="M459.8,280.594A21.4,21.4,0,0,1,439,306.077l-60.323-.669,1.593-19.534,51.651-7.756" transform="translate(-266.846 -102.134)"/><path class="c" d="M386.829,286.4a55.863,55.863,0,0,1-6.88-2.915,22.489,22.489,0,0,0-10.591-2.055l-14.382.733s.884,2.389,2.389,3.185,10.528,1.051,10.528,1.051l-.462.47a10.352,10.352,0,0,1-7.167,3.138h-1.378a13.362,13.362,0,0,1-3-.589l-3.544-1.433c-1.075-.478-2.206-.406-2.676.677s-.112,2.325,2.819,3.8c1.633.8,7.7,2.923,7.7,2.923a14.281,14.281,0,0,0,.358,2.564c.263.884,2.644,1.768,2.644,1.768a31.728,31.728,0,0,0,2.118,3.791,21.646,21.646,0,0,0,4.738,1.64,20.458,20.458,0,0,0,11.332-.088l5.479-1.64V286.7" transform="translate(-269.707 -101.812)"/><path class="d" d="M366.23,296.072a16.3,16.3,0,0,1-7.255-1.911c0-.1,1.593.51,3.607,1.027S366.238,295.953,366.23,296.072Z" transform="translate(-268.778 -100.563)"/><path class="d" d="M365.461,299.047a3.679,3.679,0,0,1-2.023-.151,3.735,3.735,0,0,1-1.816-.892,12.006,12.006,0,0,1,1.911.549,12.949,12.949,0,0,1,1.927.494Z" transform="translate(-268.518 -100.185)"/><path class="d" d="M368.36,284.775a6.119,6.119,0,0,1-1.107,1.187,17.734,17.734,0,0,1-3.138,2.389,12.362,12.362,0,0,1-3.671,1.417,5.3,5.3,0,0,1-1.593.175,20.971,20.971,0,0,0,5.113-1.9,24.452,24.452,0,0,0,3.146-2.254,9.056,9.056,0,0,1,1.25-1.011Z" transform="translate(-268.79 -101.482)"/><path class="a" d="M384.961,284.955l-1.465,22.09h56.819a21.222,21.222,0,0,0,10.95-3.034h0a21.246,21.246,0,0,0,9.906-22.3,65.361,65.361,0,0,0-3.663-12.256l-28.573,4.706.916,3.552Z" transform="translate(-266.374 -102.983)"/><path class="e" d="M442.806,275.29a4.634,4.634,0,0,1-.573.127l-1.664.3-6.14,1.019-20.2,3.185-20.219,3.1-6.132.892-1.672.223a5.168,5.168,0,0,1-.589.048,2.822,2.822,0,0,1,.581-.135l1.656-.295,6.116-1.027,20.2-3.185,20.259-3.122,6.132-.892,1.672-.223a2.707,2.707,0,0,1,.573-.016Z" transform="translate(-266.166 -102.412)"/><path class="g" d="M412.254,305.865c-.1,0,.342-1.593.4-4.2a18.135,18.135,0,0,0-.088-2.118,19.914,19.914,0,0,0-.35-2.389,22.243,22.243,0,0,0-1.848-5.24,23.97,23.97,0,0,0-3.106-4.619l-.8-.932c-.271-.3-.565-.565-.836-.836-.534-.549-1.1-.987-1.593-1.41-2.031-1.593-3.472-2.389-3.424-2.461a6.153,6.153,0,0,1,1.011.518,10.7,10.7,0,0,1,1.147.693c.422.3.948.6,1.449,1.027a18.322,18.322,0,0,1,1.64,1.386c.279.271.589.526.868.8l.868.94a23.359,23.359,0,0,1,3.185,4.675,22.058,22.058,0,0,1,1.847,5.351,17.833,17.833,0,0,1,.318,2.461,15.124,15.124,0,0,1,0,2.15,14,14,0,0,1-.159,1.776,8.832,8.832,0,0,1-.231,1.314A6.7,6.7,0,0,1,412.254,305.865Z" transform="translate(-264.696 -101.787)"/><path class="g" d="M444.486,304.558a11.945,11.945,0,0,1-2.636-.311A13.641,13.641,0,0,1,438.9,303.2a11.7,11.7,0,0,1-3.321-2.469,10.576,10.576,0,0,1-2.445-4.38,11.779,11.779,0,0,1-.422-2.787,10.829,10.829,0,0,1,.239-2.97,8.76,8.76,0,0,1,1.179-2.923,6.61,6.61,0,0,1,2.389-2.278,5.926,5.926,0,0,1,3.337-.8,4.452,4.452,0,0,1,3.114,1.593,4.364,4.364,0,0,1,1.051,3.353,3.982,3.982,0,0,1-1.959,2.8,9.334,9.334,0,0,1-6.275.86,13.1,13.1,0,0,1-11.077-12.55,9.411,9.411,0,0,1,.223-2.644,22.151,22.151,0,0,0-.064,2.636,13.537,13.537,0,0,0,2.27,6.705,13,13,0,0,0,8.7,5.519,8.991,8.991,0,0,0,6-.8,3.583,3.583,0,0,0,1.768-2.509,4.157,4.157,0,0,0-3.8-4.5,5.5,5.5,0,0,0-3.1.709,7.167,7.167,0,0,0-3.384,4.921,10.449,10.449,0,0,0-.247,2.883,11.442,11.442,0,0,0,.39,2.7,10.233,10.233,0,0,0,2.325,4.276,11.618,11.618,0,0,0,3.185,2.461,13.989,13.989,0,0,0,2.883,1.091C443.538,304.486,444.494,304.5,444.486,304.558Z" transform="translate(-262.335 -102.144)"/></g><path class="a" d="M255.7,83.019H113.4a31.36,31.36,0,0,0-31.36,31.36V165.09H51.34l30.7,30.7v34.474a31.36,31.36,0,0,0,31.36,31.36H255.7a31.36,31.36,0,0,0,31.36-31.36V114.379A31.36,31.36,0,0,0,255.7,83.019Z" transform="translate(-51.34 -73.528)"/><path class="e" d="M185.3,88.121c-.9,2.333.645,4.874,2.389,6.673s3.83,3.5,4.38,5.941c.454,2.047-.3,4.173-.119,6.259s1.338,4.053,1.991,6.092c1.187,3.7.709,7.732-.35,11.467A21.078,21.078,0,0,1,189.323,133a11.26,11.26,0,0,1-8.346,3.982,3.3,3.3,0,0,1-2.469-.892,3.982,3.982,0,0,1-.709-2.19,213.522,213.522,0,0,1,0-48.258" transform="translate(-39.078 -73.27)"/><path class="e" d="M184.462,135.067c6.928-.3,13.331,6.331,12.781,13.243a14.778,14.778,0,0,1,10.6,16.516c-.454,2.341-1.5,4.571-1.64,6.944-.159,2.6.8,5.12,1.266,7.669a24.161,24.161,0,0,1-1.386,13.824c-1.091,2.636-3.13,5.359-5.981,5.439a5.893,5.893,0,0,1-4.778-2.811,14.819,14.819,0,0,1-1.927-5.439c-1.234-6.227-1.593-12.622-3.313-18.73S185.019,159.594,179.5,156.5c-3.05-1.72-6.713-2.532-9.142-5.057a9.93,9.93,0,0,1-1.792-10.273,13.092,13.092,0,0,1,7.8-7.287" transform="translate(-39.918 -68.542)"/><path class="e" d="M139.393,94.935c-.08-2.962,2.652-5.248,5.407-6.371s5.821-1.5,8.274-3.185c2.182-1.465,3.639-3.751,5.479-5.574a18.228,18.228,0,0,1,30.659,8.362c1.059,4.213.334,9.2-2.986,12-3.854,3.249-9.556,2.524-14.517,1.513s-10.536-2.007-14.661.9c-2.485,1.744-3.918,4.595-5.439,7.231s-3.424,5.32-6.3,6.315-6.785-.725-6.9-3.759" transform="translate(-42.805 -74.375)"/><path class="i" d="M150.332,94.257a4.953,4.953,0,0,0-4.42,5.033h0l2.954,66.893c.127,7.9,11.674,12.335,20.131,12.136h0c8.545-.2,8.815-4.388,8.927-11.905.175-12.55.159-17.265.167-17.193s10.79-1.816,13-15.927c1.091-7,.717-18.483.1-27.872-.549-8.449-6.172-18.8-14.589-17.894Z" transform="translate(-42.07 -73.091)"/><path class="e" d="M185.259,112.041a1.808,1.808,0,0,1-1.736,1.824,1.72,1.72,0,0,1-1.863-1.593,1.8,1.8,0,0,1,1.736-1.824,1.72,1.72,0,0,1,1.863,1.593Z" transform="translate(-38.565 -70.84)"/><path class="e" d="M185.532,109.459c-.223.239-1.593-.8-3.536-.8s-3.369.987-3.584.749c-.1-.1.127-.534.749-.987a4.929,4.929,0,0,1,2.859-.884,4.778,4.778,0,0,1,2.819.9C185.436,108.909,185.644,109.355,185.532,109.459Z" transform="translate(-38.886 -71.124)"/><path class="e" d="M168.252,112.041a1.808,1.808,0,0,1-1.736,1.824,1.72,1.72,0,0,1-1.863-1.593,1.8,1.8,0,0,1,1.736-1.824,1.72,1.72,0,0,1,1.863,1.593Z" transform="translate(-40.233 -70.84)"/><path class="e" d="M168.169,109.829c-.223.239-1.593-.8-3.536-.8s-3.369.987-3.576.749c-.1-.1.119-.534.741-.987a4.953,4.953,0,0,1,2.859-.892,4.778,4.778,0,0,1,2.819.908C168.034,109.3,168.241,109.726,168.169,109.829Z" transform="translate(-40.587 -71.089)"/><path class="e" d="M174.032,124.215a13.07,13.07,0,0,1,3.185-.573c.494-.056.964-.159,1.051-.494a2.6,2.6,0,0,0-.334-1.473l-1.481-3.775c-2.047-5.375-3.536-9.795-3.313-9.875s2.055,4.213,4.1,9.556l1.417,3.8a2.923,2.923,0,0,1,.263,1.943,1.258,1.258,0,0,1-.8.733,3.106,3.106,0,0,1-.8.111A12.62,12.62,0,0,1,174.032,124.215Z" transform="translate(-39.403 -71.077)"/><path class="j" d="M176.9,144.161a35.835,35.835,0,0,1-18.873-4.993s4.595,9.668,18.69,8.314Z" transform="translate(-40.882 -68.024)"/><path class="j" d="M173.731,127.152a3.5,3.5,0,0,0-3.185-1.29,3.185,3.185,0,0,0-2.206,1.187,2.023,2.023,0,0,0-.143,2.317,2.333,2.333,0,0,0,2.548.637,7.279,7.279,0,0,0,2.477-1.489,2.119,2.119,0,0,0,.557-.573.645.645,0,0,0,0-.725" transform="translate(-39.914 -69.331)"/><path class="e" d="M168.771,124.017c.319,0,.326,2.094,2.134,3.584s4.053,1.258,4.069,1.593c0,.135-.5.414-1.449.438a5.248,5.248,0,0,1-3.4-1.171,4.579,4.579,0,0,1-1.648-3.01C168.389,124.519,168.628,124.017,168.771,124.017Z" transform="translate(-39.86 -69.509)"/><path class="e" d="M169.049,106.684c-.191.534-2.134.287-4.412.565s-4.125.908-4.428.43c-.135-.223.183-.725.924-1.234a7.74,7.74,0,0,1,6.737-.8C168.738,106.023,169.161,106.437,169.049,106.684Z" transform="translate(-40.671 -71.352)"/><path class="e" d="M184.8,104.343c-.342.438-1.68,0-3.3,0s-2.97.3-3.281-.159c-.143-.223.072-.661.669-1.083a4.778,4.778,0,0,1,5.3.151C184.8,103.674,184.971,104.128,184.8,104.343Z" transform="translate(-38.906 -71.631)"/><path class="e" d="M140.991,140.85a12.495,12.495,0,0,0,14.876-13.785c-.438-3.464-2.3-6.976-1.1-10.257,1.593-4.324,7.653-5.654,9.261-9.978.932-2.508.1-5.447,1.155-7.908,1-2.309,3.432-3.639,5.805-4.5s4.905-1.449,6.9-2.994,3.225-4.46,1.943-6.634a133.387,133.387,0,0,0-30.771,7.478c-2.3.86-4.714,1.9-6.076,3.934-1.433,2.166-1.362,4.953-1.242,7.549.589,12.646-1.338,24.487-.749,37.133" transform="translate(-42.563 -73.354)"/><path class="f" d="M138.216,137.4a.8.8,0,0,1-.231-.072,2.923,2.923,0,0,1-.645-.319,4.674,4.674,0,0,1-1.752-2.07,6.944,6.944,0,0,1-.462-4.276,13.609,13.609,0,0,1,2.556-5.12,37.531,37.531,0,0,0,3.87-5.686,8.76,8.76,0,0,0,.932-3.631,12.081,12.081,0,0,0-.8-3.918,11.9,11.9,0,0,1-.836-4.252,9.556,9.556,0,0,1,4.579-7.693,10.958,10.958,0,0,1,4.643-1.322,19.536,19.536,0,0,0,4.643-.8,6.06,6.06,0,0,0,3.265-2.938,22.517,22.517,0,0,0,1.545-4.157,22.5,22.5,0,0,1,1.593-3.982,15.059,15.059,0,0,1,5.28-5.933A11.419,11.419,0,0,1,173.08,79.5a8.593,8.593,0,0,1,5.264,2.158,8.314,8.314,0,0,1,2.349,3.615,6.7,6.7,0,0,1,.326,2.708,4.085,4.085,0,0,1-.159.94,8.137,8.137,0,0,0,.08-.948,7.047,7.047,0,0,0-.4-2.652,8.266,8.266,0,0,0-7.478-5.527,11.149,11.149,0,0,0-6.482,1.736,14.716,14.716,0,0,0-5.128,5.813,21.933,21.933,0,0,0-1.545,3.982,22.7,22.7,0,0,1-1.593,4.229,7.24,7.24,0,0,1-1.425,1.879,6.044,6.044,0,0,1-2.055,1.25,19.6,19.6,0,0,1-4.778.844,10.512,10.512,0,0,0-4.475,1.266,9.142,9.142,0,0,0-4.388,7.342,11.691,11.691,0,0,0,.8,4.125,12.192,12.192,0,0,1,.836,4.045,9.142,9.142,0,0,1-.987,3.775,38.492,38.492,0,0,1-3.942,5.71,13.346,13.346,0,0,0-2.564,4.993,6.753,6.753,0,0,0,.374,4.157,4.778,4.778,0,0,0,1.656,2.078C137.9,137.293,138.224,137.373,138.216,137.4Z" transform="translate(-43.141 -73.874)"/><path class="f" d="M175.2,76.31a1.306,1.306,0,0,1,.549.167,5.622,5.622,0,0,1,1.33.8,6.825,6.825,0,0,1,1.394,9.325,6.051,6.051,0,0,1-1.035,1.155c-.287.239-.462.342-.478.319a19.8,19.8,0,0,0,1.266-1.593,6.872,6.872,0,0,0-1.33-8.943,18.125,18.125,0,0,0-1.7-1.226Z" transform="translate(-39.199 -74.185)"/><path class="f" d="M205.761,166.634a11.844,11.844,0,0,0,.406-1.5,6.9,6.9,0,0,0-.693-4.053,9.4,9.4,0,0,0-4.444-4.141,18.5,18.5,0,0,0-3.464-1.234c-1.242-.319-2.556-.581-3.87-1.011a8.76,8.76,0,0,1-3.56-1.943,5.941,5.941,0,0,1-1.68-3.377c-.215-1.187-.287-2.309-.549-3.313a6.5,6.5,0,0,0-1.282-2.532,7.318,7.318,0,0,0-3.408-2.317c-.948-.287-1.513-.287-1.513-.334a2.055,2.055,0,0,1,.406,0,6.626,6.626,0,0,1,1.155.183,7.223,7.223,0,0,1,3.584,2.286,6.729,6.729,0,0,1,1.394,2.636c.287,1.043.374,2.182.6,3.329a5.511,5.511,0,0,0,1.593,3.185,8.473,8.473,0,0,0,3.4,1.84c1.282.414,2.6.685,3.846,1.011a17.79,17.79,0,0,1,3.5,1.258,9.556,9.556,0,0,1,4.539,4.356,6.864,6.864,0,0,1,.589,4.213,4.986,4.986,0,0,1-.358,1.107,1.931,1.931,0,0,1-.191.35Z" transform="translate(-38.561 -67.857)"/><path class="e" d="M149.435,147.121c-7.167-1.911-13.3-8.9-15.8-15.847s-2.5-14.541-1.855-21.9c.462-5.328,1.4-10.966,4.937-14.979,5.335-6.052,11.149-9.142,19.176-8.887" transform="translate(-43.49 -73.285)"/><path class="k" d="M191.05,156.968,184.4,155.3a3.783,3.783,0,0,0,1.322-4.635,6.092,6.092,0,0,0-5.081-3.767l-30.309-3.424a2.389,2.389,0,0,0-2.54,1.5q-2.015,5.128-.135,8.441h-.143l-5.845,1.163-9.906,87.39,64.886-3.034Z" transform="translate(-43.457 -67.604)"/><path class="e" d="M179.86,154.681a6.857,6.857,0,0,1-1.218.239c-.8.127-1.935.263-3.353.406a78.327,78.327,0,0,1-22.21-1.107c-1.4-.279-2.524-.534-3.3-.741a6.473,6.473,0,0,1-1.187-.35,6.968,6.968,0,0,1,1.218.2c.8.151,1.919.366,3.321.605a91.946,91.946,0,0,0,22.13,1.1c1.417-.1,2.564-.2,3.361-.279a7.875,7.875,0,0,1,1.234-.072Z" transform="translate(-41.807 -66.655)"/><path class="l" d="M150.358,167.844a23.825,23.825,0,0,1,2.27-3.775,23.554,23.554,0,0,1,2.62-3.544,23.54,23.54,0,0,1-2.278,3.775,23.22,23.22,0,0,1-2.612,3.544Z" transform="translate(-41.634 -65.93)"/><path class="l" d="M169.889,169.144a45.622,45.622,0,0,1-5.439-6.769,23.166,23.166,0,0,1,2.883,3.257,22.451,22.451,0,0,1,2.556,3.512Z" transform="translate(-40.252 -65.749)"/><path class="l" d="M160.693,179.44a24.518,24.518,0,0,1-.979-4.348,22.943,22.943,0,0,1-.565-4.42,24.3,24.3,0,0,1,.979,4.348,24.482,24.482,0,0,1,.565,4.42Z" transform="translate(-40.772 -64.935)"/><path class="l" d="M175.78,179.281A35.039,35.039,0,0,1,172.1,183.2a34.348,34.348,0,0,1-3.982,3.623A34.971,34.971,0,0,1,171.8,182.9a36.218,36.218,0,0,1,3.982-3.623Z" transform="translate(-39.893 -64.091)"/><path class="l" d="M156.211,193.5a18.467,18.467,0,0,1-6.9-7.318c.112-.072,1.33,1.84,3.249,3.854S156.29,193.393,156.211,193.5Z" transform="translate(-41.737 -63.416)"/><path class="l" d="M162.542,203.316c0,.119-1.816.7-3.918,1.824s-3.639,2.3-3.719,2.2a11.587,11.587,0,0,1,3.528-2.572,11.34,11.34,0,0,1,4.109-1.449Z" transform="translate(-41.188 -61.735)"/><path class="l" d="M172.706,204.909a7.827,7.827,0,0,1-1.266-1.362c-.733-.876-1.712-2.126-2.731-3.552s-1.879-2.755-2.477-3.743a7.915,7.915,0,0,1-.876-1.64,9.151,9.151,0,0,1,1.123,1.481l2.572,3.663,2.62,3.615a8.759,8.759,0,0,1,1.035,1.537Z" transform="translate(-40.164 -62.589)"/><path class="l" d="M173.937,212.925a22.762,22.762,0,0,1-4.778,1.115,23.1,23.1,0,0,1-4.9.486,38.551,38.551,0,0,1,4.834-.892A41.217,41.217,0,0,1,173.937,212.925Z" transform="translate(-40.271 -60.793)"/><path class="l" d="M156.624,154.274c-.056,0,.326-.478.653-1.322a7.023,7.023,0,0,0,.35-3.456,14.094,14.094,0,0,0-1.027-3.4,6.426,6.426,0,0,1-.541-1.4,4.714,4.714,0,0,1,.8,1.282,11.037,11.037,0,0,1,1.171,3.456,6.474,6.474,0,0,1-.486,3.639A2.572,2.572,0,0,1,156.624,154.274Z" transform="translate(-41.075 -67.482)"/><path class="l" d="M167.613,147.457a7.255,7.255,0,0,1,1.282,5.479c-.119,0-.135-1.266-.494-2.771S167.525,147.521,167.613,147.457Z" transform="translate(-39.943 -67.211)"/><path class="i" d="M217.571,211.92l30.181-53.012,3.639-9.2s9.413-20.227,10.066-22.3c.757-2.389,2.086-2.58,2.947-2.246,1.338.534,1.768,2.524,1.179,4.587-.207.709-3.862,11.826-3.862,11.826a26.7,26.7,0,0,1,3.122-2.317c2.317-1.593,6.562-1.513,10.5-.111s4.905,2.142,4.436,3.687a2.055,2.055,0,0,1-1.266,1.25,3.982,3.982,0,0,1-2.907.064c-6.323-2.15-9.126.7-9.126.7l-.47,1.2s4.778-1.521,7.454.629a3.982,3.982,0,0,1,.987,1.147,5.232,5.232,0,0,1,1.935,8.808,2.174,2.174,0,0,1-2.389.605,2.667,2.667,0,0,1-.9-1.043,4.6,4.6,0,0,0-.438-.6l-1.8,3.185s-4.436,6.928-6.028,10.169l-20.784,55.37a14.653,14.653,0,0,1-19.112,8.481h0a14.661,14.661,0,0,1-7.358-20.888Z" transform="translate(-35.233 -69.409)"/><path class="i" d="M246.78,156.7a3.034,3.034,0,0,0,3.5-.605c.956-.828,1.593-1.967,2.516-2.867,2.684-2.684,7.167-2.939,9.739-5.75.358-.39.677-.987.366-1.417s-.884-.35-1.362-.255l-12.351,2.445" transform="translate(-32.182 -67.381)"/><path class="j" d="M249.182,148.274a5.3,5.3,0,0,1,1.306-.4c.852-.215,2.094-.494,3.623-.8l5.383-1.139,1.593-.326a2.516,2.516,0,0,1,1.887.064,1.067,1.067,0,0,1,.4,1.123,2.11,2.11,0,0,1-.478.908,8.137,8.137,0,0,1-1.394,1.226c-2.055,1.425-4.308,2.007-6.108,2.954a9.118,9.118,0,0,0-2.341,1.593c-.637.613-1.139,1.314-1.664,1.911a4.444,4.444,0,0,1-3.273,1.84c-.948,0-1.338-.47-1.306-.478a3.7,3.7,0,0,0,1.29.2,4.308,4.308,0,0,0,2.9-1.887,25.634,25.634,0,0,1,1.632-2.007,9.627,9.627,0,0,1,2.461-1.768c1.855-1,4.1-1.593,6-2.946a8.074,8.074,0,0,0,1.258-1.107c.35-.39.47-.86.223-1a2.513,2.513,0,0,0-1.346.04l-1.593.295-5.415,1c-1.545.271-2.8.478-3.663.605a4.395,4.395,0,0,1-1.37.1Z" transform="translate(-32.179 -67.407)"/><path class="j" d="M261.358,144.55a5.136,5.136,0,0,1,1.417-1.911,3.982,3.982,0,0,1,2.389-.8,10.289,10.289,0,0,1,3.185.526,16.189,16.189,0,0,0,3.233.733,5.208,5.208,0,0,0,2.708-.414,2.062,2.062,0,0,0,1.155-1.449,1.29,1.29,0,0,0,0-.677c-.048,0-.048.239-.167.637a1.935,1.935,0,0,1-1.115,1.195,5.3,5.3,0,0,1-2.54.287,17.519,17.519,0,0,1-3.138-.8,10.177,10.177,0,0,0-3.3-.51,4.2,4.2,0,0,0-2.572.956,3.647,3.647,0,0,0-1.075,1.505C261.342,144.3,261.326,144.542,261.358,144.55Z" transform="translate(-30.754 -67.887)"/><path class="j" d="M261.748,128.608a13.536,13.536,0,0,0-.749,2.206c-.47,1.529-1.027,3.345-1.648,5.351s-1.234,3.807-1.728,5.328a12.686,12.686,0,0,0-.661,2.23,11.322,11.322,0,0,0,.972-2.118c.526-1.338,1.194-3.185,1.863-5.3s1.187-3.982,1.521-5.407a11.093,11.093,0,0,0,.43-2.293Z" transform="translate(-31.184 -69.059)"/><path class="j" d="M262.909,147.3a2.571,2.571,0,0,0,.733,0,2.158,2.158,0,0,1,1.736.462,1.17,1.17,0,0,1,.279,1.115,6,6,0,0,1-.565,1.4,2.612,2.612,0,0,0-.295,1.832,2.238,2.238,0,0,0,1.417,1.425,2.517,2.517,0,0,0,1.983-.2,3.1,3.1,0,0,0,1.314-1.282,10.248,10.248,0,0,0,.876-2.867,5.868,5.868,0,0,0,0-2.015,1.306,1.306,0,0,0-.279-.685c-.04,0,.064.255.1.709a7.032,7.032,0,0,1-.167,1.935,11.069,11.069,0,0,1-.924,2.716,2.493,2.493,0,0,1-2.771,1.25,1.768,1.768,0,0,1-1.131-1.115,2.2,2.2,0,0,1,.247-1.521,6.587,6.587,0,0,0,.557-1.521,1.513,1.513,0,0,0-.438-1.41,2.27,2.27,0,0,0-1.991-.414,2.2,2.2,0,0,0-.685.183Z" transform="translate(-30.601 -67.306)"/><path class="j" d="M267.664,152.922a1.1,1.1,0,0,0-.135.653,2.015,2.015,0,0,0,.924,1.553,2.692,2.692,0,0,0,2.684,0,4.388,4.388,0,0,0,2.023-2.58,5.3,5.3,0,0,0,0-3.281,5.064,5.064,0,0,0-1.473-2.23,4.778,4.778,0,0,0-1.537-.924,1.457,1.457,0,0,0-.645-.143,8.618,8.618,0,0,1,1.959,1.306,4.993,4.993,0,0,1,1.258,5.128,4.1,4.1,0,0,1-1.792,2.349,2.389,2.389,0,0,1-2.3.064,1.935,1.935,0,0,1-.924-1.3A5.862,5.862,0,0,1,267.664,152.922Z" transform="translate(-30.148 -67.357)"/><path class="j" d="M258.863,157.429a1.9,1.9,0,0,0-1.067-.327,4.38,4.38,0,0,0-2.771.661l.342.231a12.818,12.818,0,0,0,.223-1.593,10.021,10.021,0,0,0-.8-5.383,24.839,24.839,0,0,1,.342,5.343,14.09,14.09,0,0,1-.2,1.521l-.1.518.438-.295a4.6,4.6,0,0,1,2.508-.749A10.773,10.773,0,0,0,258.863,157.429Z" transform="translate(-31.396 -66.862)"/><path class="j" d="M264.225,139.654c-.127,0,.048.956.892,1.688s1.792.8,1.792.661-.757-.366-1.481-1.011S264.353,139.606,264.225,139.654Z" transform="translate(-30.475 -67.976)"/><path class="a" d="M178.411,253.048l31.575.311-5.3-22.911,1.776,4.324a21.748,21.748,0,0,0,20.124,13.5h0c9.986,0,16.89-7.43,21.111-16.476,9.875-21.151,19.391-55.21,19.391-55.21l-19.248-16.914c-13.936,26.359-27.028,49.246-27.028,49.246s-3.783-11.491-6.705-21.748-2.9-15.64-7.382-20.753c-6.9-7.868-16.723-9.819-25.865-12.176l-.342,42.556-2.11,56.253" transform="translate(-38.884 -66.546)"/><path class="a" d="M149.563,221.522l57.5,11.149,2.8,22.09H121.7a17.36,17.36,0,0,1-17.519-18.73c1.266-16.1,2.644-35.931,3.7-44.316.8-6.538,3.424-13.3,6.506-19.112,4.452-8.378,19.287-19.112,32.292-19.67l2.461,54.764" transform="translate(-46.166 -66.674)"/><g class="b" transform="translate(57.959 86.306)"><path d="M178.411,253.048l31.575.311-5.3-22.911,1.776,4.324a21.748,21.748,0,0,0,20.124,13.5h0c9.986,0,16.89-7.43,21.111-16.476,9.875-21.151,19.391-55.21,19.391-55.21l-19.248-16.914c-13.936,26.359-27.028,49.246-27.028,49.246s-3.783-11.491-6.705-21.748-2.9-15.64-7.382-20.753c-6.9-7.868-16.723-9.819-25.865-12.176l-.342,42.556-2.11,56.253" transform="translate(-96.843 -152.853)"/><path d="M149.563,221.517l51.858,9.508a5.431,5.431,0,0,1,4.324,4.213l4.109,19.566H121.7a17.36,17.36,0,0,1-17.519-18.73c1.266-16.1,2.644-35.931,3.7-44.316.8-6.538,3.424-13.3,6.506-19.112,4.452-8.378,19.287-19.112,32.292-19.67l2.461,54.764" transform="translate(-104.125 -152.976)"/></g><path class="e" d="M136.094,218.379a2.244,2.244,0,0,1,0-.526q0-.585,0-1.505v-5.574c0-4.675-.088-11.149-.446-18.26-.183-3.568-.414-6.96-.661-10.034a41.16,41.16,0,0,0-1.155-8.091,11.587,11.587,0,0,0-2.532-4.778,18.057,18.057,0,0,0-1.481-1.354,6.163,6.163,0,0,1,1.633,1.218,11.229,11.229,0,0,1,2.7,4.834,39.944,39.944,0,0,1,1.242,8.17c.271,3.082.51,6.474.693,10.042.366,7.167.406,13.609.326,18.316-.048,2.341-.111,4.237-.167,5.574l-.088,1.505a1.99,1.99,0,0,1-.064.462Z" transform="translate(-43.647 -65.172)"/><path class="e" d="M202.865,228.286a8.76,8.76,0,0,0-2.094-1.7,13.235,13.235,0,0,0-2.939-1.171c-1.187-.342-2.58-.605-4.117-.916-6.148-1.258-14.629-3-24.026-4.778s-17.949-3.185-24.137-4.173l-7.334-1.171-1.991-.334a4.325,4.325,0,0,1-.693-.143,4.107,4.107,0,0,1,.7.064l2.007.255c1.736.231,4.252.581,7.35,1.043,6.2.924,14.764,2.293,24.169,4.053s17.886,3.544,24.01,4.866c1.537.334,2.931.621,4.125.987a12.687,12.687,0,0,1,2.954,1.258,6.37,6.37,0,0,1,1.593,1.274,3.181,3.181,0,0,1,.334.406A.729.729,0,0,1,202.865,228.286Z" transform="translate(-43.087 -60.697)"/><path class="e" d="M136.988,213.9c0,.072-1.059.319-2.7.987a23.952,23.952,0,0,0-2.787,1.37,24.942,24.942,0,0,0-3.1,2.182,24.368,24.368,0,0,0-2.644,2.676,22.49,22.49,0,0,0-1.832,2.5c-.94,1.505-1.37,2.524-1.441,2.493a2.987,2.987,0,0,1,.247-.741,16.2,16.2,0,0,1,.94-1.9,21.114,21.114,0,0,1,1.792-2.6,20.506,20.506,0,0,1,5.893-4.945,18.969,18.969,0,0,1,2.859-1.314,14.736,14.736,0,0,1,2.039-.6A2.65,2.65,0,0,1,136.988,213.9Z" transform="translate(-44.366 -60.697)"/><path class="e" d="M203.748,231.325a3.42,3.42,0,0,1-.119-.549c-.064-.4-.151-.924-.255-1.593-.223-1.378-.518-3.369-.852-5.837-.669-4.929-1.481-11.762-2.166-19.327s-1.091-14.43-1.314-19.407c-.112-2.485-.175-4.5-.207-5.893v-1.593a2.989,2.989,0,0,1,0-.557,2.387,2.387,0,0,1,.064.557l.1,1.593c.088,1.433.2,3.432.342,5.877.295,4.969.757,11.826,1.433,19.383s1.449,14.39,2.047,19.327c.295,2.437.542,4.42.717,5.853.072.661.135,1.187.183,1.593a2.271,2.271,0,0,1,.024.573Z" transform="translate(-36.883 -64.357)"/><path class="e" d="M221.063,220.136a5.733,5.733,0,0,1-.462-.526,15.276,15.276,0,0,1-1.059-1.593,20.984,20.984,0,0,1-2.827-12.073,13.417,13.417,0,0,1,.255-1.887,2.651,2.651,0,0,1,.175-.677c.072,0-.08.987-.135,2.58a23.747,23.747,0,0,0,2.787,11.945C220.546,219.284,221.127,220.088,221.063,220.136Z" transform="translate(-35.134 -61.729)"/><path class="g" d="M137.848,187.614a1.378,1.378,0,0,1-.295.064,7.422,7.422,0,0,1-.868.088,13.147,13.147,0,0,1-3.185-.255,22.689,22.689,0,0,1-4.531-1.417c-1.648-.685-3.4-1.593-5.232-2.477a39.352,39.352,0,0,0-5.312-2.2,18.022,18.022,0,0,0-4.571-.9,14.828,14.828,0,0,0-4.276.486.971.971,0,0,1,.279-.127,5.571,5.571,0,0,1,.8-.279,10.926,10.926,0,0,1,3.185-.366,17.368,17.368,0,0,1,4.682.8,36.36,36.36,0,0,1,5.367,2.214c1.84.908,3.576,1.8,5.2,2.493a24.344,24.344,0,0,0,4.444,1.481A19.806,19.806,0,0,0,137.848,187.614Z" transform="translate(-45.631 -63.999)"/><path class="g" d="M145.169,185.192a28.406,28.406,0,0,1-4.682,1,26.76,26.76,0,0,1-4.778.6,28.4,28.4,0,0,1,4.682-1,26.694,26.694,0,0,1,4.778-.6Z" transform="translate(-43.07 -63.512)"/><path class="g" d="M137.77,200.755a6.079,6.079,0,0,1-1.155.5c-.757.295-1.863.693-3.241,1.139a83.553,83.553,0,0,1-11.005,2.724c-2.182.382-4.276.661-6.188.852a25.107,25.107,0,0,1-5.112.135,8.759,8.759,0,0,1-3.313-.948,5.254,5.254,0,0,1-.8-.51,1.243,1.243,0,0,1-.247-.223,10.558,10.558,0,0,0,1.107.589,9.134,9.134,0,0,0,3.273.8,26.332,26.332,0,0,0,5.041-.223c1.9-.215,3.982-.5,6.156-.884a101.248,101.248,0,0,0,10.99-2.588c1.386-.414,2.5-.8,3.273-1.011a8.566,8.566,0,0,1,1.218-.35Z" transform="translate(-45.912 -61.986)"/><path class="g" d="M144.86,204.594a23.316,23.316,0,0,1-4.34.279,23.1,23.1,0,0,1-4.34-.135,23.314,23.314,0,0,1,4.34-.279A23.094,23.094,0,0,1,144.86,204.594Z" transform="translate(-43.024 -61.628)"/><path class="g" d="M106.764,239.959a1.594,1.594,0,0,1,.088-.43c.08-.319.191-.709.319-1.195l.239-.86c.1-.311.239-.637.366-1a24.2,24.2,0,0,1,.987-2.389l.645-1.362c.231-.478.526-.94.8-1.433a35.155,35.155,0,0,1,1.959-3.034,36.29,36.29,0,0,1,12.4-10.79,34.749,34.749,0,0,1,3.281-1.521c.534-.2,1.027-.43,1.529-.589l1.441-.454a22.6,22.6,0,0,1,2.516-.645c.374-.08.717-.167,1.035-.223l.892-.119,1.226-.151a1.465,1.465,0,0,1,.43,0,1.744,1.744,0,0,1-.422.1l-1.21.231-.876.151-1.027.255a24.736,24.736,0,0,0-2.477.7l-1.417.478c-.494.167-.987.4-1.505.605a35.527,35.527,0,0,0-3.233,1.537,40.564,40.564,0,0,0-6.729,4.667,41,41,0,0,0-5.574,6.012c-.717,1.035-1.425,2.007-1.967,2.986-.279.486-.573.94-.8,1.41l-.669,1.338a23.876,23.876,0,0,0-1.035,2.389c-.135.35-.279.677-.39.979l-.279.844-.39,1.171a1.688,1.688,0,0,1-.151.334Z" transform="translate(-45.907 -60.712)"/><path class="g" d="M144.227,215.34a14.334,14.334,0,0,0-3.265,4.109,19.8,19.8,0,0,0-1.832,5.407,56.093,56.093,0,0,0-.8,7,50.274,50.274,0,0,1-.8,7.048,19.5,19.5,0,0,1-2,5.455,12,12,0,0,1-2.389,3.066,6.748,6.748,0,0,1-.836.661c-.2.135-.311.207-.319.191a13.983,13.983,0,0,0,3.329-4.061,19.845,19.845,0,0,0,1.879-5.383,51.822,51.822,0,0,0,.8-7,51.7,51.7,0,0,1,.8-7.056,19.43,19.43,0,0,1,1.943-5.463,12.343,12.343,0,0,1,2.389-3.106,7.963,7.963,0,0,1,.8-.669,1.425,1.425,0,0,1,.3-.2Z" transform="translate(-43.434 -60.557)"/><path class="g" d="M155.518,248.528c-.111,0,0-6.864.295-15.322s.6-15.314.709-15.314,0,6.864-.295,15.33S155.63,248.536,155.518,248.528Z" transform="translate(-41.132 -60.306)"/><path class="g" d="M175.326,247a5.256,5.256,0,0,1-.35-1,12.074,12.074,0,0,1-.327-1.195c-.1-.47-.247-1-.334-1.593a28.3,28.3,0,0,1-.422-4.252,29.87,29.87,0,0,1,1.593-10.313,28.668,28.668,0,0,1,1.68-3.934c.263-.549.557-1.011.8-1.425a10.56,10.56,0,0,1,.669-1.043,4.724,4.724,0,0,1,.629-.844c.072.04-.8,1.274-1.84,3.448a31.577,31.577,0,0,0-3.185,14.1,32.76,32.76,0,0,0,.327,4.213C174.96,245.548,175.406,246.981,175.326,247Z" transform="translate(-39.327 -59.962)"/><path class="g" d="M143.872,164.867c0,.064-1.258-.486-3.329-1.155a37.8,37.8,0,0,0-16.723-1.481c-2.15.295-3.464.629-3.48.557a3.567,3.567,0,0,1,.9-.295,23.091,23.091,0,0,1,2.532-.549,33.86,33.86,0,0,1,16.867,1.489,25.811,25.811,0,0,1,2.389.979A3.894,3.894,0,0,1,143.872,164.867Z" transform="translate(-44.576 -65.836)"/><path class="g" d="M200.864,195.157a21.671,21.671,0,0,1-2.954-.048c-1.824-.072-4.34-.167-7.119-.231s-5.3-.1-7.119-.119a22.141,22.141,0,0,1-2.954-.1,3.567,3.567,0,0,1,.8-.1c.51,0,1.25-.072,2.166-.1,1.824-.056,4.34-.072,7.127,0s5.3.215,7.167.366c.908.072,1.64.135,2.15.2a3.521,3.521,0,0,1,.741.127Z" transform="translate(-38.658 -62.608)"/><path class="g" d="M214.628,192.343c0,.072-1,.414-2.548,1.179a24.926,24.926,0,0,0-9.954,8.871c-.94,1.457-1.394,2.429-1.457,2.389a2.286,2.286,0,0,1,.255-.717,16.23,16.23,0,0,1,.956-1.84,22.115,22.115,0,0,1,4.348-5.264,22.512,22.512,0,0,1,5.726-3.719,16.927,16.927,0,0,1,1.935-.733,2.914,2.914,0,0,1,.741-.167Z" transform="translate(-36.702 -62.811)"/><path class="g" d="M208.74,169.112a11.858,11.858,0,0,0-4.045.565,27.188,27.188,0,0,0-4.085,1.816,33.11,33.11,0,0,1-5.049,2.27,20.57,20.57,0,0,1-9.978.645,17.91,17.91,0,0,1-2.938-.8,5.288,5.288,0,0,1-1.027-.446,40.885,40.885,0,0,0,3.982.956,21.39,21.39,0,0,0,9.8-.757,36.018,36.018,0,0,0,5.009-2.214,25.2,25.2,0,0,1,4.165-1.752,9.381,9.381,0,0,1,3.026-.438,5.679,5.679,0,0,1,.8.08C208.644,169.072,208.748,169.1,208.74,169.112Z" transform="translate(-38.57 -65.103)"/><path class="g" d="M204.948,217.773a4.155,4.155,0,0,1-.924.438c-.3.127-.677.279-1.123.422s-.948.334-1.513.478a31.052,31.052,0,0,1-4.061.844,32.961,32.961,0,0,1-5.065.263,34.06,34.06,0,0,1-5.041-.565,30.34,30.34,0,0,1-3.982-1.091c-.565-.175-1.051-.39-1.481-.565s-.8-.342-1.1-.486a4.779,4.779,0,0,1-.9-.494c0-.072,1.346.565,3.576,1.266a33.243,33.243,0,0,0,3.982.987,32.825,32.825,0,0,0,9.986.3,33.444,33.444,0,0,0,4.029-.749C203.578,218.25,204.924,217.7,204.948,217.773Z" transform="translate(-38.752 -60.393)"/><path class="g" d="M220.006,242.478a1.631,1.631,0,0,1-.311-.255,10.513,10.513,0,0,1-.8-.8,18.962,18.962,0,0,1-2.516-3.376,27.514,27.514,0,0,1-3.552-13.339,53.683,53.683,0,0,1,1.808-13.753c.43-1.72.8-3.106,1.091-4.053.135-.438.247-.8.334-1.091s.127-.382.143-.374a1.331,1.331,0,0,1-.064.39c-.064.3-.151.669-.255,1.115-.239,1.027-.565,2.389-.964,4.085a57.583,57.583,0,0,0-1.664,13.665,28.2,28.2,0,0,0,3.353,13.179A21.216,21.216,0,0,0,219,241.292C219.632,242.056,220.03,242.447,220.006,242.478Z" transform="translate(-35.51 -61.527)"/><path class="g" d="M248.337,215.883a15.713,15.713,0,0,0-4.213-2.389,33.907,33.907,0,0,0-5.1-1.33,56.539,56.539,0,0,1-6.371-1.457,26.151,26.151,0,0,1-10.09-6.068,24.049,24.049,0,0,1-2.389-2.684c-.263-.334-.438-.613-.565-.8s-.183-.287-.167-.295a10.054,10.054,0,0,1,.86.987,27.676,27.676,0,0,0,2.461,2.572,27.02,27.02,0,0,0,10.01,5.885,61.188,61.188,0,0,0,6.3,1.481,32.642,32.642,0,0,1,5.128,1.425,12.192,12.192,0,0,1,3.138,1.752,6.3,6.3,0,0,1,.733.645C248.273,215.788,248.352,215.875,248.337,215.883Z" transform="translate(-34.862 -61.976)"/><path class="g" d="M256.343,191.327a5.952,5.952,0,0,1-.852-.741c-.263-.247-.581-.549-.979-.884s-.8-.733-1.338-1.115a36.532,36.532,0,0,0-3.7-2.62,37.085,37.085,0,0,0-10.161-4.348,38.266,38.266,0,0,0-4.452-.868c-.637-.1-1.218-.143-1.728-.191s-.956-.088-1.314-.1a6.439,6.439,0,0,1-1.123-.1,5.425,5.425,0,0,1,1.123-.056,21.266,21.266,0,0,1,3.082.127,34.519,34.519,0,0,1,4.5.8,38.65,38.65,0,0,1,5.32,1.784,37.8,37.8,0,0,1,4.953,2.612,34.247,34.247,0,0,1,3.687,2.716,15.224,15.224,0,0,1,1.306,1.179,12.738,12.738,0,0,1,.932.94,5.354,5.354,0,0,1,.741.876Z" transform="translate(-33.758 -63.993)"/><path class="g" d="M191.579,157.053a5.941,5.941,0,0,1-1.513.725,27.411,27.411,0,0,1-3.862,1.195,27.75,27.75,0,0,1-3.982.637,5.574,5.574,0,0,1-1.672,0c0-.127,2.524-.334,5.574-1.059S191.532,156.934,191.579,157.053Z" transform="translate(-38.674 -66.271)"/><path class="i" d="M218.733,262.334a2.214,2.214,0,0,1-2.437,2.811h0a2.206,2.206,0,0,1-1.816-1.593l-.677-2.5h.1a2.317,2.317,0,0,1-2.588,2.731h0c-1.043,0-1.943-1.521-2.246-2.325h0a4.332,4.332,0,0,1-4.045-1.943l-4.674-7.294-8.656-6.331,5.24-18.706,18.626,12.057c.733.573.844.8,2.007,1.887l12.025,11.061c-1.362.8-2.516.757-4.412,0s-10.193-6.371-10.193-6.371l3.743,16.444" transform="translate(-37.581 -59.396)"/><path class="j" d="M201.807,245.184a3.813,3.813,0,0,1,.549.327l.621.43a3.758,3.758,0,0,1,.8.669,3.464,3.464,0,0,1,.637,1.075c.143.422.295.852.454,1.306l1.019,2.994c.709,2.134,1.33,4.061,1.76,5.471a13.456,13.456,0,0,1,.613,2.3,13.618,13.618,0,0,1-.892-2.214c-.5-1.386-1.171-3.3-1.879-5.423-.342-1.059-.677-2.07-.987-3-.143-.462-.279-.9-.414-1.314a3.385,3.385,0,0,0-.534-1.011,4.134,4.134,0,0,0-.685-.669l-.573-.486C201.951,245.367,201.791,245.208,201.807,245.184Z" transform="translate(-36.59 -57.631)"/><path class="j" d="M212.727,260.071a3.565,3.565,0,0,1-.263-.8l-.6-2.134c-.51-1.8-1.187-4.292-2.055-7.008a25.144,25.144,0,0,0-2.867-6.633,5.757,5.757,0,0,0-1.521-1.521c-.438-.271-.717-.35-.709-.4a.534.534,0,0,1,.215.04,2.844,2.844,0,0,1,.573.215,5.233,5.233,0,0,1,1.68,1.489A23.149,23.149,0,0,1,210.2,250c.876,2.7,1.513,5.24,1.943,7.064.215.908.374,1.648.478,2.166a2.8,2.8,0,0,1,.1.836Z" transform="translate(-36.305 -57.985)"/><path class="j" d="M217.071,261.321a3.552,3.552,0,0,1-.327-.836c-.2-.637-.446-1.41-.741-2.325-.605-1.967-1.41-4.69-2.278-7.7s-1.593-5.654-2.19-7.725a3.711,3.711,0,0,0-1.274-1.943,4.844,4.844,0,0,0-.8-.414.51.51,0,0,1,.239,0,1.959,1.959,0,0,1,.629.263,3.743,3.743,0,0,1,1.457,1.983c.653,1.967,1.426,4.69,2.309,7.7s1.632,5.758,2.166,7.74c.239.924.446,1.712.605,2.389a4.259,4.259,0,0,1,.2.868Z" transform="translate(-35.84 -58.104)"/><g transform="translate(249.963 6.703)"><path class="f" d="M319.449,102.18a2.538,2.538,0,1,0,2.538-2.538,2.538,2.538,0,0,0-2.538,2.538Z" transform="translate(-281.763 -72.504)"/><circle class="f" cx="2.538" cy="2.538" r="2.538" transform="translate(27.526 27.137)"/><path class="f" d="M299.157,100.911a2.531,2.531,0,1,0,1.54-1.185A2.538,2.538,0,0,0,299.157,100.911Z" transform="translate(-281.763 -72.504)"/><path class="f" d="M311.667,72.525a3.388,3.388,0,0,0-.508,0l-1.508.044a8.661,8.661,0,0,0-1.117.051l-1.327.189-1.552.225-1.741.428a28.045,28.045,0,0,0-8.406,3.626A29.735,29.735,0,0,0,281.874,99.4a31.6,31.6,0,0,0-.08,4.069c.051.682.036,1.385.138,2.074s.21,1.392.312,2.1a29.839,29.839,0,0,0,2.828,8.275,31.83,31.83,0,0,0,5.4,7.441,31.184,31.184,0,0,0,7.789,5.592,28.284,28.284,0,0,0,9.493,2.9,19.526,19.526,0,0,0,2.531.21,23.134,23.134,0,0,0,2.56.051,30.707,30.707,0,0,0,5.12-.645,30.018,30.018,0,0,0,10.2-4.3l-.3.036,10.393,4.17.616.247-.174-.638-3.061-11.111-.051.268a29.785,29.785,0,0,0,5.548-12.692,27.153,27.153,0,0,0,.406-6.527,22.055,22.055,0,0,0-.3-3.126q-.116-.769-.239-1.523c-.087-.5-.239-.986-.363-1.45a29.735,29.735,0,0,0-11.6-16.905,28.481,28.481,0,0,0-6.9-3.626l-1.559-.558-1.451-.377-1.349-.334c-.435-.08-.856-.123-1.247-.189-.783-.094-1.451-.232-2.081-.261l-1.523-.051H312a2.175,2.175,0,0,0-.319,0,.935.935,0,0,0,.319.044l.928.08,1.516.1c.6.044,1.284.2,2.067.312a29.576,29.576,0,0,1,23.629,21.96c.109.479.261.957.348,1.45s.145.986.225,1.494a21.251,21.251,0,0,1,.276,3.068,26.831,26.831,0,0,1-.421,6.375,29.38,29.38,0,0,1-5.5,12.4l-.094.123.043.152q1.451,5.381,3.032,11.118l.442-.392-10.393-4.185-.16-.065-.152.094a29.162,29.162,0,0,1-14.984,4.83,23.93,23.93,0,0,1-2.5-.043,18.644,18.644,0,0,1-2.473-.21,27.712,27.712,0,0,1-9.283-2.836,30.817,30.817,0,0,1-7.63-5.461,31.272,31.272,0,0,1-5.309-7.252,29.445,29.445,0,0,1-2.756-8.116c-.109-.725-.218-1.371-.319-2.052s-.087-1.363-.138-2.038a30.408,30.408,0,0,1,.058-3.989,29.365,29.365,0,0,1,13.279-22.04A28.285,28.285,0,0,1,304,73.707l1.712-.457L307.251,73l1.32-.218c.406-.044.776-.058,1.1-.08l1.5-.109a2.372,2.372,0,0,0,.493-.065Z" transform="translate(-281.763 -72.504)"/></g></svg>